<?xml version="1.0" encoding="utf-8"?>
<!-- Generator: Adobe Illustrator 17.1.0, SVG Export Plug-In . SVG Version: 6.00 Build 0)  -->
<!DOCTYPE svg PUBLIC "-//W3C//DTD SVG 1.1//EN" "http://www.w3.org/Graphics/SVG/1.1/DTD/svg11.dtd">
<svg version="1.1" id="Layer_1" xmlns="http://www.w3.org/2000/svg" xmlns:xlink="http://www.w3.org/1999/xlink" x="0px" y="0px"
	 viewBox="0 0 33 50.8" enable-background="new 0 0 33 50.8" xml:space="preserve">
<g opacity="0.25">
	<path fill="#FFFFFF" d="M16.5,44.2l-1.2-0.8L15,43.2c-0.3-0.2-7.6-4.7-10.5-10.2c-2.8-5.5-2.4-18.6-2.4-19.2l0-1.2l1.2,0
		c0.2,0,0.4,0,0.6,0c5.1,0,9.7-2.3,11.3-3.2l1.2-0.7l1.2,0.7c1.6,0.9,6.2,3.2,11.3,3.2h0c0.2,0,0.4,0,0.6,0l1.2,0l0,1.2
		c0,0.6,0.4,13.7-2.4,19.2c-2.8,5.5-10.2,10-10.5,10.2l-0.3,0.2L16.5,44.2z"/>
	<path fill="#BBBDBF" d="M16.5,44.7l-1.7-1.1c-0.3-0.2-7.7-4.7-10.6-10.4c-2.9-5.6-2.5-18.8-2.5-19.4l0.1-1.6l1.6,0.1
		c5.2,0.2,9.9-2.1,11.7-3.1l1.4-0.8l1.4,0.8c1.8,1,6.5,3.3,11.7,3.1l1.6-0.1l0.1,1.6c0,0.6,0.4,13.8-2.5,19.4
		C26,38.9,18.5,43.4,18.2,43.6L16.5,44.7z M2.6,13.1l0,0.8c0,0.6-0.4,13.6,2.4,19c2.8,5.4,10,9.8,10.3,10l1.3,0.8l1.3-0.8
		c0.3-0.2,7.6-4.6,10.3-10c2.8-5.4,2.4-18.8,2.4-19l0-0.8l-0.8,0c-0.2,0-0.4,0-0.6,0c-5.1,0-9.8-2.3-11.5-3.2l-1-0.6l-1,0.6
		c-1.8,1-6.8,3.4-12.2,3.2L2.6,13.1z"/>
	<path fill="#35647E" d="M29.7,13.9c-6.5,0.2-12.5-3.3-13.2-3.7v0c0,0,0,0,0,0c0,0,0,0,0,0v0c-0.6,0.4-6.6,3.9-13.1,3.7
		c0,0-0.4,13.3,2.3,18.6c2.7,5.3,10,9.7,10,9.7l0.8,0.5v0l0,0l0,0v0l0.8-0.5c0,0,7.3-4.5,10-9.7C30.1,27.3,29.7,13.9,29.7,13.9"/>
	<path fill="#4F86A0" d="M16.6,42.8l0.8-0.5c0,0,7.3-4.5,10-9.7c2.7-5.3,2.3-18.6,2.3-18.6c-6.5,0.2-12.5-3.3-13.1-3.7v0
		c0,0,0,0,0,0c0,0,0,0,0,0v0"/>
	<polyline fill="#231F20" points="14.7,26.3 15.9,48.2 17.3,48.2 18.3,26.4 	"/>
	<rect x="13.7" y="26.3" fill="#231F20" width="5.8" height="0.3"/>
	<rect x="13.7" y="17.1" fill="#231F20" width="5.8" height="0.3"/>
	<rect x="10.9" y="3.8" fill="#BBBDBF" width="11.1" height="6.4"/>
	<rect x="9" y="3.4" fill="#231F20" width="2.3" height="7.2"/>
	<rect x="21.6" y="3.4" fill="#231F20" width="2.3" height="7.2"/>
	<rect x="12.5" y="2.6" fill="#231F20" width="8" height="8.8"/>
	<rect x="14.4" y="4.5" fill="#BCBDBF" width="4.3" height="1.1"/>
	<polygon fill="#231F20" points="14.2,10.4 14.5,17.2 18.5,17.2 18.8,10.4 	"/>
</g>
</svg>
