<?xml version="1.0" encoding="utf-8"?>
<!-- Generator: Adobe Illustrator 17.1.0, SVG Export Plug-In . SVG Version: 6.00 Build 0)  -->
<!DOCTYPE svg PUBLIC "-//W3C//DTD SVG 1.1//EN" "http://www.w3.org/Graphics/SVG/1.1/DTD/svg11.dtd">
<svg version="1.1" id="Layer_1" xmlns="http://www.w3.org/2000/svg" xmlns:xlink="http://www.w3.org/1999/xlink" x="0px" y="0px"
	 viewBox="0 0 792 612" enable-background="new 0 0 792 612" xml:space="preserve">
<g opacity="0.2">
	<path fill="#FFFFFF" d="M396,532.5l-14.5-9.6l-3.6-2.4c-3.6-2.4-91.6-56.6-126.5-122.9c-33.7-66.3-28.9-224.1-28.9-231.3v-14.5H237
		c2.4,0,4.8,0,7.2,0c61.4,0,116.9-27.7,136.1-38.6l14.5-8.4l14.5,8.4c19.3,10.8,74.7,38.6,136.1,38.6l0,0c2.4,0,4.8,0,7.2,0h14.5
		v14.5c0,7.2,4.8,165-28.9,231.3C504.4,463.8,415.3,518,411.7,520.4l-3.6,2.4L396,532.5z"/>
	<path fill="#BBBDBF" d="M396,538.5l-20.5-13.3c-3.6-2.4-92.8-56.6-127.7-125.3c-34.9-67.5-30.1-226.5-30.1-233.7l1.2-19.3l19.3,1.2
		c62.6,2.4,119.3-25.3,141-37.3l16.9-9.6l16.9,9.6c21.7,12,78.3,39.8,141,37.3l19.3-1.2l1.2,19.3c0,7.2,4.8,166.3-30.1,233.7
		c-33.7,68.7-124.1,122.9-127.7,125.3L396,538.5z M228.5,157.8v9.6c0,7.2-4.8,163.8,28.9,228.9s120.5,118.1,124.1,120.5l15.7,9.6
		l15.7-9.6c3.6-2.4,91.6-55.4,124.1-120.5c33.7-65.1,28.9-226.5,28.9-228.9v-9.6h-9.6c-2.4,0-4.8,0-7.2,0
		c-61.4,0-118.1-27.7-138.5-38.6l-12-7.2l-12,7.2c-21.7,12-81.9,41-147,38.6H228.5z"/>
	<path fill="#35647E" d="M555,167.5c-78.3,2.4-150.6-39.8-159-44.6l0,0l0,0l0,0l0,0c-7.2,4.8-79.5,47-157.8,44.6
		c0,0-4.8,160.2,27.7,224.1s120.5,116.9,120.5,116.9l9.6,6l0,0l0,0l0,0l0,0l9.6-6c0,0,87.9-54.2,120.5-116.9
		C559.8,328.9,555,167.5,555,167.5"/>
	<path fill="#4F86A0" d="M397.2,515.6l9.6-6c0,0,87.9-54.2,120.5-116.9c32.5-63.9,27.7-224.1,27.7-224.1
		c-78.3,2.4-150.6-39.8-157.8-44.6l0,0l0,0l0,0l0,0"/>
	<polyline fill="#231F20" points="374.3,316.8 388.8,580.7 405.6,580.7 417.7,318 	"/>
	<rect x="362.3" y="316.8" fill="#231F20" width="69.9" height="3.6"/>
	<rect x="362.3" y="206" fill="#231F20" width="69.9" height="3.6"/>
	<rect x="328.5" y="45.8" fill="#BBBDBF" width="133.7" height="77.1"/>
	<rect x="305.6" y="41" fill="#231F20" width="27.7" height="86.7"/>
	<rect x="457.4" y="41" fill="#231F20" width="27.7" height="86.7"/>
	<rect x="347.8" y="31.3" fill="#231F20" width="96.4" height="106"/>
	<rect x="370.7" y="54.2" fill="#BCBDBF" width="51.8" height="13.3"/>
	<polygon fill="#231F20" points="368.3,125.3 371.9,207.2 420.1,207.2 423.7,125.3 	"/>
</g>
</svg>
