<?xml version="1.0" encoding="utf-8"?>
<!-- Generator: Adobe Illustrator 17.1.0, SVG Export Plug-In . SVG Version: 6.00 Build 0)  -->
<!DOCTYPE svg PUBLIC "-//W3C//DTD SVG 1.1//EN" "http://www.w3.org/Graphics/SVG/1.1/DTD/svg11.dtd">
<svg version="1.1" id="Layer_1" xmlns="http://www.w3.org/2000/svg" xmlns:xlink="http://www.w3.org/1999/xlink" x="0px" y="0px"
	 viewBox="0 0 502.5 502.5" enable-background="new 0 0 502.5 502.5" xml:space="preserve">
<g>
	<path fill="#FFFFFF" d="M146.9,263c16.4,0,32.4,0,49.2,0c-16.4-33.3-32.6-66.1-49.2-99.7C146.9,197.2,146.9,229.9,146.9,263z"/>
	<path fill="#FFFFFF" d="M144.6,263c0-32.6,0-64.6,0-97.9c-16.3,33.1-32.2,65.3-48.3,97.9C112.8,263,128.4,263,144.6,263z"/>
	<path fill="#FFFFFF" d="M354.7,328.9c0-32.4,0-64.5,0-97.5c-16.3,32.9-32.1,64.9-48.2,97.5C323,328.9,338.7,328.9,354.7,328.9z"/>
	<path fill="#FFFFFF" d="M357.2,229.6c0,33,0,66.1,0,99.3c16.7,0,32.4,0,49,0C389.7,295.4,373.4,262.5,357.2,229.6L357.2,229.6z"/>
	<path fill="#FFFFFF" d="M251.2,11.4c-132.4,0-239.8,107.4-239.8,239.8S118.8,491,251.2,491C383.7,491,491,383.7,491,251.2
		S383.7,11.4,251.2,11.4z M304,329.8c16.6-33.6,33.2-67.3,49.9-101.3c-3.6-0.2-6.5-0.4-9.5-0.4c-8.8,0-16.8-2.6-23.8-7.8
		c-11.6-8.6-23.1-17.5-34.8-26c-3.4-2.5-7.6-4.1-11.5-5.7c-1.5-0.6-3.5-0.3-5.3-0.5c-0.5,3.3-1.1,6.1-1.4,8.8
		c-0.5,4.4-2.1,8.2-5.2,11.6c-1.3,1.4-1.9,3.9-1.9,5.9c-0.1,27.7-0.2,55.3,0,83c0,3,1.1,6.2,2.6,8.9c3.5,6.5,4.8,13.4,5.3,20.6
		c0.2,3.7,0.8,7.3,0.7,11c-0.3,11.2,6.9,16.6,16.1,18.4c6.1,1.2,12.5,1.2,19.2,1.7c0.5,1.1,1,2.4,1.8,4.3c13.2,0,26.6,0,40.7,0
		c0.2,3.2,0.3,5.9,0.4,8.5c-3.8,1.5-179,2-186,0.6c0-2.6,0-5.3,0-8.6c13.8,0,27.3,0,41,0c0.6-1.9,1.1-3.2,1.6-4.8
		c0.5-0.1,1.1-0.4,1.7-0.5c5.3-0.3,10.7-0.2,15.9-1c11.7-1.7,18.6-8.7,18.2-21.5c-0.3-10.5,0.8-21,6.5-30.4c1.1-1.7,1.4-4.1,1.4-6.2
		c0.1-28.2,0.1-56.3,0-84.5c0-1.7-0.2-4-1.3-5.1c-5.9-5.9-5.8-13.5-6.6-20.9c-0.3-2.8,0-5.6,0-8.5c-6.2-5.3-13.2-7.2-20.9-7.1
		c-15.8,0.2-31.6,0.7-47.5,0.5c-8.4-0.1-15.5-4.6-22.4-9.1l0,0c12.7,25.7,25.4,51.3,38.1,77c3.7,7.6,7.4,15.2,11,22.8
		c-27.9,22.2-80,21.7-104.1-0.3c16.8-34,33.7-68.2,50.7-102.6c-2-2.2-4.2-4.3-6-6.6c-3.6-4.4-6-9.2-3.6-15.1
		c2.1-5.1,6.1-8.4,11.6-7.6c4.1,0.6,8.3,2.3,12,4.4c3.5,2,3.6,5.7,1.2,9.1c-3.8,5.4-3.3,8.2,1.8,12.1c3.6,2.7,7.5,4.4,12,4.4
		c9.6-0.1,19.3-0.4,28.9-0.7c13.1-0.3,26.3-1.6,39.1,2.4c3.5-5.8,6.9-11.5,10-16.6c-1.8-3-3.8-5.3-4.6-8c-0.4-1.5,0.8-3.9,1.8-5.5
		c1.7-2.6,5.1-3.3,8.1-2c3.6,1.4,4.7,4.2,4,10.4c-1.1,1-2.2,2.1-3.9,3.7c0.5,1.5,0.8,3.3,1.6,4.8c2,3.5,4.6,6.6,6.2,10.2
		c1.5,3.4,2.2,7.3,3.3,11.1c0.5,0.3,1,0.8,1.6,1c16.2,4.8,28.4,15.7,40.9,26.2c6.3,5.3,13.4,9.9,20.2,14.6c4.1,2.9,8.8,2.8,13.5,2.3
		c3.9-0.4,5.5-2.4,5.7-6.3c0.5-7.7,2.6-9.5,10.3-8.6c0.3,0,0.7,0,1,0.1c7.3,1.2,12.5,6,12.9,12c0.4,6.4-3.4,11.3-10.7,13.8
		c-0.8,0.3-1.6,0.5-2.4,0.7c-0.6,0.2-1.2,0.4-2.7,0.9c16.3,34,33.2,67.5,49.6,101C384.2,351.1,332.8,351.7,304,329.8z"/>
</g>
</svg>
