<?xml version="1.0" encoding="utf-8"?>
<!-- Generator: Adobe Illustrator 17.1.0, SVG Export Plug-In . SVG Version: 6.00 Build 0)  -->
<!DOCTYPE svg PUBLIC "-//W3C//DTD SVG 1.1//EN" "http://www.w3.org/Graphics/SVG/1.1/DTD/svg11.dtd">
<svg version="1.1" id="Layer_1" xmlns="http://www.w3.org/2000/svg" xmlns:xlink="http://www.w3.org/1999/xlink" x="0px" y="0px"
	 viewBox="0 227 792 158" enable-background="new 0 227 792 158" xml:space="preserve">
<g>
	<g enable-background="new    ">
		<path fill="#FFFFFF" d="M224.3,242.7h4v39.1h19.9v3.6h-23.9V242.7z"/>
	</g>
	<g enable-background="new    ">
		<path fill="#FFFFFF" d="M267.5,242.7h4.1l18,42.7h-4.5l-4.6-11.3h-22.6l-4.8,11.3h-4.2L267.5,242.7z M269.3,247.1l-10,23.4H279
			L269.3,247.1z"/>
	</g>
	<g enable-background="new    ">
		<path fill="#FFFFFF" d="M290,242.7h4.1l10.6,37.8h0.1l10.8-37.8h5.1l10.8,37.8h0.1l10.6-37.8h4.1l-12.4,42.7H329l-10.8-38h-0.1
			l-10.8,38h-4.9L290,242.7z"/>
		<path fill="#FFFFFF" d="M387.4,241.6c13,0,22.1,9.4,22.1,22.4s-9,22.4-22.1,22.4c-13,0-22.1-9.4-22.1-22.4
			S374.4,241.6,387.4,241.6z M387.4,282.9c11.2,0,18.1-8.2,18.1-18.8c0-10.6-6.9-18.8-18.1-18.8c-11.2,0-18.1,8.2-18.1,18.8
			C369.4,274.7,376.3,282.9,387.4,282.9z"/>
		<path fill="#FFFFFF" d="M418.4,242.7H444v3.6h-21.6v15.2h20.1v3.6h-20.1v20.3h-4V242.7z"/>
		<path fill="#FFFFFF" d="M452,242.7h25.6v3.6H456v15.2H476v3.6H456v20.3h-4V242.7z"/>
		<path fill="#FFFFFF" d="M485.5,242.7h4v42.7h-4V242.7z"/>
		<path fill="#FFFFFF" d="M536.4,278.7c-4,5.5-9.6,7.8-15.9,7.8c-13,0-22.1-9.4-22.1-22.4s9-22.4,22.1-22.4c5.8,0,11,1.9,14.7,6.7
			l-3.3,2.7c-2.7-4-7.2-5.8-11.5-5.8c-11.2,0-18.1,8.2-18.1,18.8c0,10.6,6.9,18.8,18.1,18.8c4.3,0,9.6-2.1,12.6-6.6L536.4,278.7z"/>
		<path fill="#FFFFFF" d="M543.7,242.7h26.1v3.6h-22.1v15.2h20.7v3.6h-20.7v16.6h23.1v3.6h-27.1V242.7z"/>
	</g>
	<g enable-background="new    ">
		<path fill="#FFFFFF" d="M12.6,314.8h18.2c10.5,0,20,3.7,20,15.7c0,13.6-10.2,16.1-21.6,16.1h-6.9V369h-9.6V314.8z M28,338.3
			c5.5,0,12.6-0.3,12.6-7.6c0-6.7-6.3-7.6-11.5-7.6h-6.9v15.2H28z"/>
	</g>
	<g enable-background="new    ">
		<path fill="#FFFFFF" d="M71.3,314.8h8.3l23.3,54.1h-11l-5-12.4H63.4L58.5,369H47.7L71.3,314.8z M83.5,348.3l-8.3-22l-8.5,22H83.5z
			"/>
	</g>
	<g enable-background="new    ">
		<path fill="#FFFFFF" d="M113.1,323.6H96.5v-8.7h42.8v8.7h-16.6V369h-9.6V323.6z"/>
		<path fill="#FFFFFF" d="M145.9,314.8h18.8c10.4,0,20.2,3.4,20.2,15.5c0,7.8-4.5,13.5-12.5,14.7l14.4,23.9h-11.6L162.6,346h-7V369
			h-9.6V314.8z M163,337.8c5.4,0,11.8-0.5,11.8-7.5c0-6.4-6-7.2-10.9-7.2h-8.3v14.7H163z"/>
		<path fill="#FFFFFF" d="M193.8,314.8h9.6V369h-9.6V314.8z"/>
		<path fill="#FFFFFF" d="M252.5,327.5c-4-4.2-7.6-5.4-11.4-5.4c-11.2,0-18.6,8.6-18.6,19.3c0,11.5,7.4,20.1,18.6,20.1
			c4.4,0,8.6-2,12.2-6.6l8,5.7c-4.9,6.7-12.2,9.6-20.2,9.6c-16.7,0-28.6-11.3-28.6-28.2c0-17.4,11.9-28.7,28.6-28.7
			c7.3,0,13.6,2.4,19,8.6L252.5,327.5z"/>
		<path fill="#FFFFFF" d="M267.7,314.8h9.6v22.9h0.5l22.4-22.9h13l-25.3,25l27,29.1h-13.5l-23.5-26.6h-0.5V369h-9.6V314.8z"/>
		<path fill="#FFFFFF" d="M369.2,354c0,8.6-5.4,16.4-16.3,16.4c-8.5,0-14.2-3.9-15.9-12.5l9-2.1c0.6,3.5,3.1,5.9,6.4,5.9
			c5.5,0,7.1-4,7.1-10.5v-36.3h9.6V354z"/>
		<path fill="#FFFFFF" d="M380.9,314.8h35.9v8.7h-26.2v13.3h24.8v8.7h-24.8v14.7h27.6v8.7h-37.2V314.8z"/>
		<path fill="#FFFFFF" d="M427.7,314.8h12.8l26.2,40.2h0.2v-40.2h9.6V369h-12.2l-26.8-41.5h-0.2V369h-9.6V314.8z"/>
		<path fill="#FFFFFF" d="M488.5,314.8h12.8l26.2,40.2h0.2v-40.2h9.6V369h-12.2l-26.8-41.5h-0.2V369h-9.6V314.8z"/>
		<path fill="#FFFFFF" d="M549.4,314.8h35.9v8.7H559v13.3h24.8v8.7H559v14.7h27.6v8.7h-37.2V314.8z"/>
		<path fill="#FFFFFF" d="M607.2,323.6h-16.6v-8.7h42.8v8.7h-16.6V369h-9.6V323.6z"/>
		<path fill="#FFFFFF" d="M651.1,323.6h-16.6v-8.7h42.8v8.7h-16.6V369h-9.6V323.6z"/>
		<path fill="#FFFFFF" d="M683.9,314.8h35.9v8.7h-26.2v13.3h24.8v8.7h-24.8v14.7h27.6v8.7h-37.2V314.8z"/>
		<path fill="#FFFFFF" d="M730.6,314.8h12.8l26.2,40.2h0.2v-40.2h9.6V369h-12.2l-26.8-41.5h-0.2V369h-9.6V314.8z"/>
	</g>
	<g enable-background="new    ">
		<path fill="#FFFFFF" d="M598.2,265.2c6,0,10.2,4.4,10.2,10.4c0,6-4.2,10.4-10.2,10.4c-6,0-10.2-4.4-10.2-10.4
			C588,269.5,592.2,265.2,598.2,265.2z M598.2,284.3c5.2,0,8.4-3.8,8.4-8.7c0-4.9-3.2-8.7-8.4-8.7c-5.2,0-8.4,3.8-8.4,8.7
			C589.8,280.5,593.1,284.3,598.2,284.3z"/>
		<path fill="#FFFFFF" d="M612.6,265.7h11.8v1.7h-10v7h9.3v1.7h-9.3v9.4h-1.8V265.7z"/>
	</g>
</g>
</svg>
