<?xml version="1.0" encoding="utf-8"?>
<!-- Generator: Adobe Illustrator 17.1.0, SVG Export Plug-In . SVG Version: 6.00 Build 0)  -->
<!DOCTYPE svg PUBLIC "-//W3C//DTD SVG 1.1//EN" "http://www.w3.org/Graphics/SVG/1.1/DTD/svg11.dtd">
<svg version="1.1" id="Layer_1" xmlns="http://www.w3.org/2000/svg" xmlns:xlink="http://www.w3.org/1999/xlink" x="0px" y="0px"
	 viewBox="0 0 496.5 496.5" enable-background="new 0 0 496.5 496.5" xml:space="preserve">
<g>
	<path fill="#FFFFFF" d="M248.2,8.4C115.8,8.4,8.4,115.8,8.4,248.2S115.8,488,248.2,488S488,380.7,488,248.2S380.7,8.4,248.2,8.4z
		 M391.2,299.4c-2.3,5.9-3.9,8.6-9.9,12c-7.6,4.4-15.7,7.5-24.8,7.4c-5.4,0-11,0.4-16.4,1.2c-6.9,1.2-13.8,2.7-20.3,5
		c-3,1-6.3,1.1-9.1,2.8c-2.5,1.6-5.4,2.3-8.3,3.1c-3.1,1-6.2,2.7-9.2,3.9c-4.1,1.7-8.5,2.9-12.6,4.6c-4.4,1.8-8.7,3.4-13.2,4.8
		c-4.2,1.3-8.3,3.1-12.7,4.5c-1.8,0.6-4,0.2-5.9,0.4c-4.8,0.4-9.9,1.8-14.6,1c-9.5-1.6-19.1-0.5-28.5-1.1c-2.7-0.1-5.2-1.5-8-1.2
		c-2.7,0.2-5.6,0.7-8-1.1c-0.1-0.1-0.4,0-0.6,0c-4.2,0.8-8.1-1.2-12.2-1.2c-4-0.1-7.9-1.8-11.7-2.2c-5.1-0.4-9.5-3.3-14.7-2.5
		c-5.2-3-11.4-3.7-16.9-5.7c-8.9-3-17.3-6.8-25.6-11.1c-1.3-0.7-2.7-1.1-2.8-2.5c0-1.8-0.6-3.7,1.2-5.6c7.1-7.6,15.5-13.8,23.9-19.8
		c3.3-2.3,6.6-4.4,9.9-6.6c0.7-0.5,1.1-1.6,1.2-2.4c0.2-1.6-0.1-3.3,0.1-4.8c0.1-0.8,0.7-2.2,1.3-2.4c3.9-1.1,5-5.7,8.7-6.6
		c0.4-0.1,0.7-0.8,0.7-1.3c0.8-9.9,4.2-19.2,6.2-28.9c1.2-5.8,4-11.2,5.9-16.9c1.5-4.5,3.1-8.9,5.3-12.8c5.2-9.4,9.7-19.3,17.2-27.4
		c4-4.4,8-8.7,12.1-13.1c4.7-4.8,10.4-8.5,16.2-12c5.3-3.3,10.9-5.8,16.8-7.6c5.3-1.6,10.5-3.5,16.2-3.3c2.4,0.1,5-0.7,7.4-1.1
		c2.4-0.4,5.3-0.2,7.3-1.3c1.8-1.1,3.4-1,5.1-1c3.9-0.1,7.6,0,11.5,0c9.4,0,17.9,2.8,25.6,8.2c2.3,1.6,4.7,2.4,7.4,2.5
		c6,0.5,16.1,4.4,20.7,8.5c2.5,2.3,5.1,4.7,7.3,7.3c1.9,2.3,4.4,4.8,5,7.5c1.2,5.8,5.8,8.6,9.2,12.6c6.2,7.3,11.1,15.2,14.4,24.3
		c1.2,3.4,2.9,6.4,3.7,9.9c1.5,5.7,2.8,11.4,3.9,17.2c1,5.7,0.5,11.4,1,16.1c0,3.4,0,5.8,0,8.2c0,2.1-0.5,4.2,0.1,5.9
		c0.5,1.3,2.5,2.2,3.9,3.1c1.8,1.3,2.2,3,2.1,5.2c-0.2,2.4-0.7,5.1,0.1,7.1c0.8,1.8,3.3,3,5,4.5c0.8,0.8,1.7,1.7,2.5,2.5
		C391.8,297.8,391.5,298.4,391.2,299.4z"/>
	<path fill="#FFFFFF" d="M207.7,341.8c-1.9-0.7-3.7-0.7-5.6-1.1c-1.8-0.2-3.6-1-5.6-1.2c-3.9-0.5-7.9-0.4-11.5-1.3
		c-3.5-1-7-1.5-10.5-2.3c-3.6-0.8-7.4-1.5-11-2.5c-1.7-0.5-3.1-1.1-5-1.2c-1.7,0-3.4-0.6-5-1.2c-4.2-1.5-8.3-3.3-12.6-4.7
		c-10.9-3.5-12.7-5.8-17.6-12.6c-0.1-0.2-1-0.4-1.1-0.2c-0.5,1-1.6,2.3-1.2,3c1.2,2.5,1.7,5.7,4.2,7.3c4.8,3.3,10.2,5.4,15.7,7.3
		c5,1.7,10,3.1,15.4,3.9c3.9,0.5,7.7,1.7,11.6,2.4c2.7,0.5,5.8,0,7.9,1.2c2.4,1.3,4.8,0,6.8,1.1c2.4,1.3,5,1,7.4,1.1
		c0.8,0,1.8-0.4,2.4,0c2.9,2.1,6.2,0.7,9.2,1.2c3.3,0.6,6.5,1.1,9.7,1.6c0-0.1,0-0.1,0-0.2c1.5,0,2.8,0,4.2,0c0.2,0,0.5-0.4,0.8-0.6
		c-0.4-0.1-0.6-0.5-1-0.5C212.8,342,210,342.6,207.7,341.8z"/>
</g>
</svg>
